<?xml version="1.0" encoding="UTF-8"?>
<svg version="1.1" xmlns="http://www.w3.org/2000/svg" width="1667" height="1667">
<path d="M0 0 C550.11 0 1100.22 0 1667 0 C1667 550.11 1667 1100.22 1667 1667 C1116.89 1667 566.78 1667 0 1667 C0 1116.89 0 566.78 0 0 Z " fill="#FBFBFB" transform="translate(0,0)"/>
<path d="M0 0 C1.11929586 -0.00238867 1.11929586 -0.00238867 2.26120377 -0.00482559 C32.32068722 -0.05914483 61.46992107 1.80726532 91.0625 7.3125 C92.31554932 7.54509521 93.56859863 7.77769043 94.85961914 8.01733398 C111.13602801 11.09112602 127.18206798 14.57652132 143.0625 19.3125 C143.76938965 19.52229492 144.4762793 19.73208984 145.20458984 19.94824219 C149.13892211 21.12598156 153.05265526 22.35901674 156.95751953 23.63085938 C159.25817239 24.37586318 161.56462211 25.10134736 163.87109375 25.828125 C232.19509526 47.64877701 294.73129905 86.94014574 347.57397461 135.05932617 C349.09377207 136.43538924 350.6213843 137.80296143 352.16235352 139.15527344 C359.63004648 145.73875339 366.65071305 152.74866874 373.67700195 159.79663086 C375.75294426 161.87795189 377.83420422 163.95384813 379.91601562 166.02929688 C381.26073752 167.37467938 382.60514929 168.72037194 383.94921875 170.06640625 C384.55980637 170.67496964 385.17039398 171.28353302 385.79948425 171.91053772 C390.08310141 176.2171249 394.09907126 180.71135327 398.0625 185.3125 C399.11969473 186.51555376 400.17808487 187.71755937 401.23828125 188.91796875 C407.66380498 196.23775077 413.86229067 203.65478737 419.68457031 211.46630859 C420.6667396 212.78224838 421.65358137 214.0947062 422.64355469 215.40478516 C435.19060229 232.00989402 446.65421283 249.28793821 457.0625 267.3125 C457.43906738 267.9626709 457.81563477 268.6128418 458.20361328 269.28271484 C482.19874156 310.96266139 500.96455801 356.44331992 512.0625 403.3125 C512.21140686 403.93970947 512.36031372 404.56691895 512.51373291 405.21313477 C517.84146318 427.74749533 522.03097077 450.30194125 524.8125 473.29034424 C525.04861703 475.20020588 525.30303847 477.10777879 525.55859375 479.01513672 C530.82196714 518.82211664 530.60419664 562.32369104 525.46386719 602.13525391 C525.0799279 605.17453972 524.76679603 608.21222996 524.4765625 611.26171875 C515.70468328 698.47799386 477.49912373 785.97817875 416.0625 870.3125 C415.60665527 870.90869141 415.15081055 871.50488281 414.68115234 872.11914062 C400.29602699 890.89900201 384.30875002 908.25357209 367.59228516 924.96801758 C365.55992636 927.00257642 363.53574053 929.04504187 361.51171875 931.08789062 C355.05883584 937.56796168 348.60784977 943.80435968 341.39990234 949.44873047 C338.89190989 951.44852307 336.54067198 953.57109062 334.1875 955.75 C329.01814462 960.44205966 323.56162654 964.69996226 317.97607422 968.87890625 C316.6465828 969.87492227 315.32030764 970.87524004 313.99658203 971.87890625 C286.11117978 993.01310585 256.2896784 1010.61143271 225.0625 1026.3125 C224.23250488 1026.7348291 223.40250977 1027.1571582 222.54736328 1027.59228516 C211.67564831 1033.0997134 200.4524166 1037.65503364 189.125 1042.125 C188.41817078 1042.40417267 187.71134155 1042.68334534 186.98309326 1042.97097778 C154.11845613 1055.90724137 154.11845613 1055.90724137 140.0625 1051.3125 C133.06589193 1047.55506233 129.81353427 1042.64859139 127.0625 1035.3125 C126.05194781 1031.28751704 125.9330761 1027.49719329 125.92446899 1023.35398865 C125.92164771 1022.66554039 125.91882643 1021.97709212 125.91591966 1021.26778179 C125.90760459 1018.96683976 125.90623799 1016.66594604 125.90478516 1014.36499023 C125.90011415 1012.71199408 125.89497012 1011.0589992 125.88938904 1009.40600586 C125.87811883 1005.84622252 125.86967896 1002.2864475 125.86326981 998.72665215 C125.85255471 993.07929787 125.83229575 987.4320028 125.81015015 981.78468323 C125.74835927 965.72505441 125.69439521 949.66542799 125.66113281 933.60571289 C125.64268099 924.73560282 125.61360716 915.86559113 125.5731281 906.99555355 C125.55221928 902.31127022 125.53662417 897.62711005 125.53432083 892.94277763 C125.65146982 865.97948188 125.65146982 865.97948188 122.0625 839.3125 C121.76818388 837.79310245 121.47544708 836.27339817 121.18423462 834.75340271 C117.56528198 815.91625155 108.38780446 798.02357176 95.8828125 783.58984375 C94.0625 781.3125 94.0625 781.3125 93.0625 778.3125 C94.04824005 778.12244133 94.04824005 778.12244133 95.05389404 777.92854309 C102.00042688 776.58806752 108.94542599 775.23984328 115.88964844 773.88745117 C118.46870311 773.38618233 121.04812109 772.88677845 123.62792969 772.3894043 C153.08666806 766.7250051 153.08666806 766.7250051 181.8125 758.1875 C183.43466431 757.61890259 183.43466431 757.61890259 185.08959961 757.03881836 C225.78905543 742.4194295 265.21566951 717.51642385 290.0625 681.3125 C290.50255371 680.67376953 290.94260742 680.03503906 291.39599609 679.37695312 C315.63710723 643.82445318 328.5583448 603.13474001 332.0625 560.3125 C332.15128418 559.31041504 332.24006836 558.30833008 332.33154297 557.27587891 C337.90410686 493.40283203 331.94666078 429.52605002 289.81616211 378.13989258 C281.37450706 367.7607052 281.37450706 367.7607052 281.77880859 360.33544922 C282.26078054 356.89859939 283.30510192 353.66157769 284.375 350.375 C294.82715039 315.12541017 291.04141268 277.39570915 281.5625 242.4375 C281.29042725 241.4278418 281.01835449 240.41818359 280.73803711 239.37792969 C278.95252385 233.21693941 276.70467225 226.95467225 272.0625 222.3125 C262.35521695 221.14426312 252.92890396 223.80746485 243.5625 226 C241.94543807 226.3707467 240.3282497 226.74094231 238.7109375 227.1105957 C234.15650004 228.15728429 229.60850788 229.22985547 225.0625 230.3125 C223.96421875 230.57289063 222.8659375 230.83328125 221.734375 231.1015625 C212.15957534 233.40268838 202.98391098 236.06309109 194.0625 240.3125 C192.9384375 240.84101562 191.814375 241.36953125 190.65625 241.9140625 C176.13332155 248.89841552 162.20777148 257.09277069 148.21875 265.07421875 C130.62839165 275.10012266 121.16012484 276.25983645 101.41687012 272.06454468 C96.90710565 271.10988119 92.38902527 270.19634523 87.87109375 269.28125 C86.99522614 269.10345505 86.11935852 268.9256601 85.21694946 268.74247742 C75.8610533 266.85209863 66.55364873 265.32785468 57.0625 264.3125 C55.35489502 264.11382324 55.35489502 264.11382324 53.61279297 263.91113281 C-2.25538654 257.58106537 -61.76483197 258.66636616 -116.5 272.625 C-130.11619384 276.04835308 -140.50909532 277.664245 -153.33984375 270.50390625 C-154.54256523 269.77921925 -155.74167666 269.0485141 -156.9375 268.3125 C-157.5783252 267.92175293 -158.21915039 267.53100586 -158.87939453 267.12841797 C-162.2720216 265.04810379 -165.63969107 262.93114558 -168.99609375 260.79296875 C-174.85262374 257.07882751 -180.87491044 253.67908472 -186.9375 250.3125 C-188.05898438 249.67828125 -189.18046875 249.0440625 -190.3359375 248.390625 C-208.904089 238.04699599 -228.34159753 230.50321381 -248.9375 225.3125 C-249.68580078 225.12042969 -250.43410156 224.92835938 -251.20507812 224.73046875 C-259.4757986 222.67650784 -267.63186413 221.97057257 -276.125 221.75 C-277.02307373 221.71076416 -277.92114746 221.67152832 -278.84643555 221.63110352 C-283.46750491 221.61311587 -285.30046374 221.75804251 -288.890625 224.8828125 C-291.00327959 228.42271848 -292.41071906 231.80444701 -293.5 235.75 C-293.70488037 236.45535889 -293.90976074 237.16071777 -294.12084961 237.88745117 C-294.53914084 239.3387286 -294.95072635 240.79195612 -295.35546875 242.24707031 C-295.87405947 244.08737128 -296.4342085 245.91584581 -297 247.7421875 C-306.96063927 281.43716254 -307.80513184 321.33948414 -297.70703125 355.11328125 C-296.11747431 361.72164232 -296.80802466 366.29322467 -299.9375 372.3125 C-301.3933219 374.33996573 -302.91888335 376.31865206 -304.5 378.25 C-321.69567124 399.90075479 -334.03888764 425.59937108 -340.9375 452.3125 C-341.16655029 453.12444824 -341.39560059 453.93639648 -341.6315918 454.77294922 C-351.62488186 490.3053471 -350.95938437 531.0945895 -344.9375 567.3125 C-344.55694181 569.81355128 -344.17813962 572.31487018 -343.80078125 574.81640625 C-339.04679132 605.5615506 -331.03877019 634.90416554 -315.9375 662.3125 C-315.32777344 663.46878906 -314.71804688 664.62507812 -314.08984375 665.81640625 C-307.23557259 678.41306474 -298.58723936 689.79277531 -288.8203125 700.27734375 C-287.25288562 701.97159563 -285.80260793 703.68949061 -284.375 705.5 C-281.18594816 709.17967521 -277.67986299 712.20639656 -273.9375 715.3125 C-273.18364014 715.95082764 -273.18364014 715.95082764 -272.41455078 716.60205078 C-257.64208045 729.07243076 -241.52086455 739.28324003 -223.9375 747.3125 C-223.15181641 747.6744043 -222.36613281 748.03630859 -221.55664062 748.40917969 C-202.00923473 757.33101125 -181.84498374 763.48241844 -160.9375 768.3125 C-160.25123535 768.47234375 -159.5649707 768.6321875 -158.85791016 768.796875 C-152.56261742 770.24975529 -146.36764452 771.48003261 -139.93359375 772.0703125 C-137.2787593 772.39242549 -134.73928193 773.08513308 -132.16015625 773.77734375 C-128.47470901 774.664701 -124.73334109 775.20496059 -120.9921875 775.8046875 C-116.61808792 776.5318396 -112.27827657 777.40977213 -107.9375 778.3125 C-109.35729781 781.60643092 -111.37442364 784.26097772 -113.56762695 787.08081055 C-126.70211952 804.10617547 -134.30037772 823.62896913 -137.80859375 844.8046875 C-139.92631778 849.50911251 -143.71177466 852.2980001 -148.34887695 854.41162109 C-151.00339243 855.38496851 -153.66910508 856.24323118 -156.375 857.0625 C-157.27798828 857.35253906 -158.18097656 857.64257812 -159.11132812 857.94140625 C-188.2643453 867.18762024 -219.01408974 867.40024229 -246.74072266 853.51269531 C-253.7993454 849.84086597 -259.95760413 845.58887871 -265.9375 840.3125 C-266.75605469 839.62542969 -267.57460938 838.93835937 -268.41796875 838.23046875 C-279.64793729 828.56747256 -287.56052574 817.19955388 -295.40893555 804.76123047 C-299.53776185 798.25825972 -303.99943717 792.22339481 -308.9375 786.3125 C-309.72898437 785.36117187 -310.52046875 784.40984375 -311.3359375 783.4296875 C-316.40127224 777.68363584 -321.76596916 772.84548449 -327.9375 768.3125 C-329.01451172 767.51199219 -329.01451172 767.51199219 -330.11328125 766.6953125 C-347.30961404 754.56042318 -368.72863543 748.6579411 -389.609375 751.87890625 C-396.06012075 753.20902998 -396.06012075 753.20902998 -400.9375 757.3125 C-401.50963818 760.99053118 -401.16358905 762.87916266 -399.4375 766.1875 C-394.07604829 773.30528935 -387.74314969 778.28187599 -380.22216797 782.95629883 C-374.7783591 786.351574 -369.81779598 790.14324052 -364.9375 794.3125 C-363.70773437 795.34117187 -363.70773437 795.34117187 -362.453125 796.390625 C-344.53752518 811.85813043 -333.45999923 831.92424715 -325.06323242 853.72583008 C-319.43583163 868.27140494 -312.41918766 880.6559822 -301.9375 892.3125 C-300.91076172 893.46298828 -300.91076172 893.46298828 -299.86328125 894.63671875 C-275.844011 920.07672218 -238.90020442 931.5096607 -204.74609375 932.515625 C-192.26514777 932.69394077 -180.14121674 931.77701735 -167.76953125 930.1640625 C-162.02634618 929.41615948 -156.27362661 928.82652339 -150.51049805 928.25927734 C-149.587416 928.16772873 -148.66433395 928.07618011 -147.71327972 927.9818573 C-145.45476098 927.75797388 -143.19616782 927.53487361 -140.9375 927.3125 C-140.8678615 940.56929109 -140.81461835 953.82603835 -140.78206348 967.08297539 C-140.76643551 973.23930212 -140.74524949 979.39550332 -140.71118164 985.55175781 C-140.67848614 991.49751131 -140.66062542 997.44314437 -140.65286827 1003.38898087 C-140.64734306 1005.65267964 -140.63655379 1007.91637214 -140.62030983 1010.18001938 C-140.59840036 1013.36087832 -140.59553875 1016.54124521 -140.59692383 1019.72216797 C-140.58074509 1021.11292793 -140.58074509 1021.11292793 -140.5642395 1022.53178406 C-140.60549073 1031.33824083 -142.37389708 1039.62704241 -148.08984375 1046.55078125 C-153.13757952 1051.36373861 -158.74977388 1053.58824065 -165.6875 1053.875 C-217.97697305 1051.17150896 -284.70085198 1005.42808348 -324.9375 975.3125 C-326.07763714 974.46939195 -327.21823107 973.62690111 -328.359375 972.78515625 C-342.83991386 962.03501001 -356.62095867 950.46747387 -369.9375 938.3125 C-370.84757813 937.49523438 -371.75765625 936.67796875 -372.6953125 935.8359375 C-383.03561246 926.48830633 -393.33857046 916.8466921 -402.34375 906.1875 C-404.28075871 903.90866622 -406.29655625 901.70925343 -408.3125 899.5 C-413.04003671 894.24806426 -417.53388486 888.83721159 -421.9375 883.3125 C-422.4334668 882.69439453 -422.92943359 882.07628906 -423.44042969 881.43945312 C-459.03300002 836.95412323 -486.19147262 787.09206032 -507.15435791 734.27932739 C-507.95885264 732.25887376 -508.77020809 730.24129423 -509.58349609 728.22436523 C-509.85209946 727.55710922 -510.12070282 726.88985321 -510.39744568 726.20237732 C-511.13354005 724.374307 -511.87033342 722.54651817 -512.60717773 720.71875 C-517.06463915 709.30555461 -520.31440185 697.60086214 -523.46484375 685.77734375 C-524.35429346 682.44379054 -525.27322778 679.12424439 -526.25390625 675.81640625 C-529.46612935 664.91254112 -531.67495176 653.91169644 -533.7265625 642.734375 C-534.54446637 638.27921259 -535.47040828 633.86213468 -536.45703125 629.44140625 C-546.39647896 583.49836673 -547.24419358 531.90063269 -541.9375 485.3125 C-541.86208984 484.64295288 -541.78667969 483.97340576 -541.70898438 483.28356934 C-539.10342208 460.31944606 -535.20136232 437.8113123 -529.9375 415.3125 C-529.65116699 414.0764502 -529.36483398 412.84040039 -529.06982422 411.56689453 C-523.87546771 389.35071182 -517.40929757 367.63603973 -508.81298828 346.49169922 C-507.92256266 344.27531911 -507.06552871 342.04831602 -506.21484375 339.81640625 C-502.1855376 329.34086436 -497.65678257 319.11678451 -492.9375 308.9375 C-492.65035126 308.31355347 -492.36320251 307.68960693 -492.06735229 307.04675293 C-488.31473177 298.913641 -484.22771024 291.09254868 -479.70996094 283.36132812 C-478.1419319 280.6641454 -476.64617079 277.94485647 -475.1875 275.1875 C-468.13550135 262.18176479 -460.37635316 249.46194351 -451.9375 237.3125 C-451.51033691 236.69375 -451.08317383 236.075 -450.64306641 235.4375 C-440.37271778 220.58708279 -429.56351612 206.13322324 -417.9375 192.3125 C-417.49083984 191.78092285 -417.04417969 191.2493457 -416.58398438 190.70166016 C-415.10237986 188.94288132 -413.61482988 187.18931524 -412.125 185.4375 C-411.68792725 184.92098877 -411.25085449 184.40447754 -410.80053711 183.87231445 C-401.39275647 172.88632586 -391.32113502 162.53125143 -381.08154297 152.32617188 C-379.17167006 150.42171495 -377.26727851 148.51189181 -375.36328125 146.6015625 C-369.39111076 140.6258515 -363.40915105 134.75230212 -356.9375 129.3125 C-355.85371126 128.36398355 -354.7716382 127.41350268 -353.69140625 126.4609375 C-345.40896355 119.23730785 -336.82465249 112.49406115 -328.03710938 105.89746094 C-326.04930672 104.39690107 -324.07733595 102.87800682 -322.109375 101.3515625 C-301.97212041 85.83077417 -280.09092077 72.65464196 -257.85791016 60.37695312 C-256.08053172 59.39178023 -254.31136376 58.39183368 -252.54296875 57.390625 C-240.08722438 50.50081897 -226.9990498 44.94137552 -213.9375 39.3125 C-213.20563477 38.99539063 -212.47376953 38.67828125 -211.71972656 38.3515625 C-191.21771437 29.54474387 -169.57525074 22.67194948 -147.9375 17.3125 C-146.85017578 17.03841309 -145.76285156 16.76432617 -144.64257812 16.48193359 C-119.45066327 10.17692981 -93.94819499 5.33580094 -68.125 2.5 C-66.60108643 2.33226074 -66.60108643 2.33226074 -65.04638672 2.16113281 C-43.44582923 0.0076133 -21.68630063 0.03504603 0 0 Z " fill="#2B2B2D" transform="translate(840.9375,308.6875)"/>
</svg>
